<?xml version="1.0" standalone="no"?>
<!DOCTYPE svg PUBLIC "-//W3C//DTD SVG 20010904//EN"
 "http://www.w3.org/TR/2001/REC-SVG-20010904/DTD/svg10.dtd">
<svg version="1.0" xmlns="http://www.w3.org/2000/svg"
 width="640.000000pt" height="640.000000pt" viewBox="0 0 640.000000 640.000000"
 preserveAspectRatio="xMidYMid meet">
<metadata>
Created by potrace 1.11, written by Peter Selinger 2001-2013
</metadata>
<g transform="translate(0.000000,640.000000) scale(0.100000,-0.100000)"
fill="#000000" stroke="none">
<path d="M3052 5631 c-9 -9 -55 -50 -102 -91 -47 -41 -87 -77 -90 -80 -3 -3
-61 -54 -130 -115 -69 -60 -127 -112 -130 -115 -3 -3 -38 -35 -79 -70 -41 -36
-82 -72 -91 -80 -9 -8 -49 -44 -90 -80 -149 -131 -165 -145 -191 -170 -15 -14
-39 -36 -55 -49 -26 -21 -171 -149 -200 -176 -6 -5 -37 -33 -70 -62 -32 -28
-71 -62 -85 -75 -14 -12 -59 -53 -100 -89 -175 -155 -450 -399 -513 -454 -38
-33 -81 -71 -96 -85 -23 -21 -71 -64 -166 -147 -274 -240 -412 -368 -406 -378
4 -7 39 -48 78 -91 39 -44 97 -108 128 -144 31 -36 58 -65 60 -65 2 0 19 14
38 30 18 17 67 59 108 95 41 36 84 74 96 85 11 11 52 47 89 80 38 33 112 98
165 145 168 149 242 214 264 233 12 10 37 33 56 50 19 18 71 64 115 102 44 39
85 75 91 80 6 6 44 39 84 75 41 36 119 106 175 155 56 50 134 119 175 155 40
36 83 74 96 85 12 11 50 45 85 75 35 30 73 64 85 75 41 37 89 80 219 195 72
63 144 127 160 141 17 15 41 37 54 48 12 11 57 51 99 88 112 102 107 99 145
68 17 -15 50 -44 72 -64 22 -20 96 -86 165 -146 69 -61 127 -112 130 -115 3
-3 84 -75 180 -160 96 -85 177 -157 180 -160 3 -3 43 -39 90 -80 125 -110 142
-124 154 -136 6 -5 90 -79 186 -164 96 -85 177 -157 180 -160 3 -3 61 -55 130
-115 69 -60 127 -112 130 -115 3 -3 79 -71 170 -150 91 -80 167 -147 170 -150
3 -3 46 -41 95 -85 50 -43 92 -81 95 -85 3 -3 41 -37 85 -75 44 -39 88 -77 98
-87 18 -15 21 -14 55 25 21 23 53 60 73 82 20 22 66 73 102 114 l66 75 -22 19
c-12 10 -35 31 -52 46 -16 15 -91 81 -165 146 -74 66 -151 134 -170 151 -19
17 -82 73 -140 124 -58 51 -125 111 -151 134 -41 37 -141 125 -195 173 -25 21
-162 143 -178 158 -6 6 -45 39 -86 75 -41 36 -82 72 -90 80 -8 8 -89 80 -180
160 -91 80 -170 149 -176 155 -11 11 -145 129 -174 155 -43 37 -173 153 -265
235 -96 85 -200 178 -255 225 -14 12 -41 36 -60 53 -146 133 -268 234 -282
234 -10 0 -26 -7 -36 -16z"/>
<path d="M1234 4825 c-1 -450 1 -494 15 -482 13 10 197 174 237 212 6 5 51 46
99 90 49 44 100 91 114 104 14 13 55 49 90 80 116 102 106 74 109 296 l3 195
-333 0 -334 0 0 -495z"/>
<path d="M3034 4706 c-27 -24 -114 -101 -194 -171 -128 -114 -273 -241 -304
-270 -6 -5 -47 -41 -91 -80 -44 -38 -85 -74 -91 -80 -6 -5 -44 -39 -84 -75
-40 -36 -78 -69 -84 -75 -6 -5 -47 -41 -91 -80 -44 -38 -82 -72 -85 -75 -3 -3
-38 -35 -79 -70 -41 -36 -86 -76 -101 -90 -14 -14 -46 -42 -71 -63 -142 -124
-440 -389 -480 -427 l-46 -45 1 -1185 c1 -939 4 -1190 14 -1208 32 -57 11 -55
658 -56 l594 -1 1 25 c0 14 1 256 2 537 l2 513 25 25 c14 14 39 29 55 33 17 5
251 8 522 7 478 0 493 -1 519 -21 15 -11 32 -35 38 -54 8 -24 11 -197 10 -548
l-1 -512 21 -1 c115 -5 1140 -1 1168 5 27 5 42 16 58 41 l22 35 0 1186 c1 996
-2 1188 -13 1199 -8 7 -102 90 -209 185 -107 95 -226 200 -264 234 -38 33 -77
68 -86 76 -9 8 -50 44 -90 80 -40 36 -92 81 -114 101 -62 55 -494 437 -661
585 -49 44 -105 93 -124 110 -19 16 -39 34 -45 39 -6 6 -49 44 -96 85 -47 41
-98 87 -115 102 -16 16 -33 28 -36 28 -3 0 -28 -20 -55 -44z"/>
</g>
</svg>
